<svg xmlns="http://www.w3.org/2000/svg" enable-background="new 0 0 512 512" viewBox="0 0 512 512" id="piggy-bank">
  <circle cx="401.631" cy="224.924" r="9.378"></circle>
  <path d="M496.851,245.72h-34.788c-12.618-37.328-40.957-67.441-76.915-83.283l-0.121-0.04c-0.483-19.592,5.039-40.554,11.73-64.055c-28.38,9.231-48.333,29.024-61.595,51.76H322.18c-3.305,12.134-9.271,23.502-17.535,33.216l-2.378,2.822c0.323,0,0.525,0,0.525,0c2.217,0,4.031,1.815,4.031,4.031c0,2.257-1.814,4.031-4.031,4.031H174.763c-2.257,0-4.031-1.774-4.031-4.031c0-2.216,1.774-4.031,4.031-4.031c0,0,0.201,0,0.564,0l-2.418-2.862c-6.208-7.337-11.166-15.601-14.593-24.469c-18.987,7.055-36.038,18.14-50.107,32.208c-25.235,25.276-40.917,60.225-40.917,98.843c0,59.742,37.49,110.736,90.258,130.689v32.532c0,5.523,4.474,9.998,9.997,9.998h51.276c5.522,0,9.997-4.475,9.997-9.998V429.58h75.625v23.501c0,5.523,4.474,9.998,9.997,9.998h49.301c5.523,0,9.997-4.475,9.997-9.998v-30.636c20.882-6.854,39.546-18.584,54.743-33.782c14.915-14.915,26.485-33.176,33.459-53.614h16.849c6.57,0,12.416-4.353,14.472-10.641l18.06-59.217C514.306,255.516,507.049,245.72,496.851,245.72z M401.631,242.363c-9.617,0-17.439-7.823-17.439-17.439c0-9.617,7.823-17.439,17.439-17.439c9.617,0,17.439,7.823,17.439,17.439S411.248,242.363,401.631,242.363z"></path>
  <path d="M298.478 186.14l3.749.04.04-.04C301.582 186.14 300.292 186.1 298.478 186.14zM223.724 114.027c2.268 4.462 6.311 7.584 11.018 8.749V90.127C224.05 92.726 218.967 104.541 223.724 114.027z"></path>
  <path d="M234.902,178.053c-0.053-0.263-0.158-0.507-0.158-0.785v-4.539c-7.581-1.258-14.496-5.953-18.218-13.329c-1.004-1.987-0.205-4.408,1.784-5.412c1.984-1.012,4.408-0.205,5.412,1.784c2.301,4.557,6.418,7.553,11.022,8.699v-33.472c-7.8-1.285-14.557-6.14-18.214-13.337c-7.518-14.969,1.62-33.092,18.214-35.785v-4.494c0-2.228,1.803-4.031,4.031-4.031s4.031,1.803,4.031,4.031v4.534c7.588,1.259,14.5,5.962,18.211,13.325c1.003,1.988,0.205,4.413-1.784,5.413c-1.992,1.004-4.413,0.201-5.413-1.784c-2.294-4.549-6.411-7.536-11.014-8.682v33.477c7.804,1.28,14.56,6.125,18.207,13.32c7.441,14.765-1.355,33.002-18.207,35.754v4.529c0,0.276-0.105,0.52-0.157,0.78c10.97-0.006,18.896-0.011,19.147-0.011c21.083,0,31.484,0,36.724,0.04c11.649-13.665,18.664-31.403,18.664-50.792c0-43.254-35.111-78.365-78.365-78.365c-43.375,0-78.405,35.111-78.405,78.365c0,19.39,7.014,37.127,18.624,50.792C189.072,178.078,214.774,178.064,234.902,178.053z"></path>
  <path d="M254.768 153.475c1.409-4.271 1.074-8.837-.948-12.854-2.264-4.463-6.305-7.578-11.014-8.738v32.637C248.7 163.067 253.003 158.818 254.768 153.475zM84.021 215.285c-2.822 2.177-5.806 4.152-8.91 5.766-6.974 3.546-14.068 4.676-20.075 3.185 9.287-7.122 16.136-19.189 9.797-28.34-4.918-7.094-15.238-7.255-21.728-2.943-9.881 6.635-12.271 20.219-3.83 30.476-2.418.727-4.918 1.169-7.457 1.33-9.07.564-18.382-2.822-25.034-9.07-1.612-1.532-4.152-1.451-5.684.161-1.532 1.653-1.45 4.192.161 5.724 8.224 7.74 19.913 11.973 31.039 11.247 4.837-.323 9.594-1.492 14.069-3.467 9.16 5.235 20.171 4.299 29.791.04C78.499 224.516 81.12 219.801 84.021 215.285zM47.055 219.922c-7.081-6.595-6.039-15.887.525-20.237 3.078-2.08 8.536-2.255 10.601.806C62.223 206.233 54.294 215.615 47.055 219.922z"></path>
</svg>
